<svg width="20" height="20" viewBox="0 0 20 20" fill="none" xmlns="http://www.w3.org/2000/svg">
<path d="M7.42676 5.22461V15H6.16211V5.22461H7.42676ZM14.3037 5.22461L9.90137 9.83887L14.3994 15H12.6426L8.65723 10.2969V9.53125L12.7041 5.22461H14.3037Z" fill="#55EFC4"/>
<path d="M7.42676 5.22461H8.42676V4.22461H7.42676V5.22461ZM7.42676 15V16H8.42676V15H7.42676ZM6.16211 15H5.16211V16H6.16211V15ZM6.16211 5.22461V4.22461H5.16211V5.22461H6.16211ZM14.3037 5.22461L15.0272 5.91491L16.6399 4.22461H14.3037V5.22461ZM9.90137 9.83887L9.17784 9.14857L8.54832 9.80839L9.14749 10.4959L9.90137 9.83887ZM14.3994 15V16H16.5974L15.1533 14.343L14.3994 15ZM12.6426 15L11.8797 15.6465L12.1792 16H12.6426V15ZM8.65723 10.2969H7.65723V10.6636L7.8943 10.9434L8.65723 10.2969ZM8.65723 9.53125L7.92848 8.84646L7.65723 9.13513V9.53125H8.65723ZM12.7041 5.22461V4.22461H12.2716L11.9754 4.53982L12.7041 5.22461ZM6.42676 5.22461V15H8.42676V5.22461H6.42676ZM7.42676 14H6.16211V16H7.42676V14ZM7.16211 15V5.22461H5.16211V15H7.16211ZM6.16211 6.22461H7.42676V4.22461H6.16211V6.22461ZM13.5802 4.53431L9.17784 9.14857L10.6249 10.5292L15.0272 5.91491L13.5802 4.53431ZM9.14749 10.4959L13.6455 15.657L15.1533 14.343L10.6552 9.18185L9.14749 10.4959ZM14.3994 14H12.6426V16H14.3994V14ZM13.4055 14.3535L9.42015 9.65039L7.8943 10.9434L11.8797 15.6465L13.4055 14.3535ZM9.65723 10.2969V9.53125H7.65723V10.2969H9.65723ZM9.38597 10.216L13.4328 5.9094L11.9754 4.53982L7.92848 8.84646L9.38597 10.216ZM12.7041 6.22461H14.3037V4.22461H12.7041V6.22461Z" fill="#55EFC4"/>
<rect x="1" y="1" width="18" height="18" stroke="#55EFC4" stroke-width="2"/>
</svg>
